<?xml version="1.0" encoding="UTF-8"?><svg id="_レイヤー_2" xmlns="http://www.w3.org/2000/svg" viewBox="0 0 1200 573"><defs><style>.cls-1{fill:#0f2540;}</style></defs><g id="menu"><g id="header"><g><rect class="cls-1" width="1200" height="384"/><g id="_レイヤー_2-2"><g id="_レイヤー_1-2"><path class="cls-1" d="M0,383v189.58c28.9-1.91,64.13-1.5,64.13-1.5,0,0,53.5-1.71,104.01-1.36,25.12,.14,72.74,0,90.4,0,47.96,0,49.28,.68,74.85-.68,2.9-.14,15.9-.14,18.45-.27,0-1.98,.53-4.5,.7-7.44,.7-14.33,2.9-39.17,4.66-73.98,.61-12.01,3.51-79.51,4.13-93.7l3.25,.61c-.26,49.61,1.41,122.77,0,148.16-.09,2.05,.88,25.39,.88,25.39,0,0,45.86,1.64,71.95,1.02,28.2,0,63.25,1.09,75.64,1.16,17.39,.14,83.37,1.3,112.18,1.16,30.31-.2,42.17-.2,69.4-.2,43.48,0,111.57,1.02,131.95,.34,.26-2.18,1.23-19.86,1.49-23.54,1.49-18.15,3.43-92.81,1.14-138.33-.26-4.85,.7-10.99,.88-15.97l2.55-.48c0,7.17,1.14,21.36,1.49,37.6,.53,30.23,1.41,67.43,1.23,78.75-.26,18.43-.7,35.21-1.23,50.23-.09,3.28,.09,6.55-.09,9.69,0,1.23,.18,1.84,.18,3,11.33-.2,19.24,.27,33.47,.07,30.92-.41,23.72-.48,37.42-.48,9.75,0,21.87,.41,34.88,.48,28.81,.14,59.39-1.57,80.29-1.36,13.62,.14,29.52,1.23,42.78,1.3,8.43,.07,16.78,.68,24.95,.75,7.47,.07,15.81-.48,23.1-.48,32.24,.14,61.49,.61,88.9,.07v-189.58H0Z"/></g></g></g></g></g></svg>