<?xml version="1.0" encoding="UTF-8"?><svg id="_レイヤー_2" xmlns="http://www.w3.org/2000/svg" viewBox="0 0 40 40"><defs><style>.cls-1{fill:#fff;}</style></defs><g id="menu"><g id="footer"><path class="cls-1" d="M20,3.61c5.34,0,5.97,.02,8.08,.12,5.42,.25,7.95,2.82,8.2,8.2,.1,2.11,.12,2.74,.12,8.08s-.02,5.97-.12,8.08c-.25,5.38-2.77,7.95-8.2,8.2-2.11,.1-2.74,.12-8.08,.12s-5.97-.02-8.08-.12c-5.43-.25-7.95-2.83-8.2-8.2-.1-2.11-.12-2.74-.12-8.08s.02-5.97,.12-8.08c.25-5.38,2.77-7.95,8.2-8.2,2.11-.09,2.74-.12,8.08-.12Zm0-3.61c-5.43,0-6.11,.02-8.25,.12C4.49,.45,.45,4.48,.12,11.75c-.1,2.14-.12,2.82-.12,8.25s.02,6.11,.12,8.25c.33,7.26,4.36,11.3,11.63,11.63,2.14,.1,2.82,.12,8.25,.12s6.11-.02,8.25-.12c7.26-.33,11.3-4.36,11.63-11.63,.1-2.13,.12-2.82,.12-8.25s-.02-6.11-.12-8.25C39.55,4.5,35.52,.45,28.25,.12,26.11,.02,25.43,0,20,0Zm0,9.73c-5.67,0-10.27,4.6-10.27,10.27s4.6,10.27,10.27,10.27,10.27-4.6,10.27-10.27-4.6-10.27-10.27-10.27Zm0,16.94c-3.68,0-6.67-2.98-6.67-6.67s2.99-6.67,6.67-6.67,6.67,2.99,6.67,6.67-2.99,6.67-6.67,6.67ZM30.68,6.92c-1.33,0-2.4,1.07-2.4,2.4s1.08,2.4,2.4,2.4,2.4-1.07,2.4-2.4-1.07-2.4-2.4-2.4Z"/></g></g></svg>