<?xml version="1.0" encoding="UTF-8"?><svg id="_レイヤー_2" xmlns="http://www.w3.org/2000/svg" xmlns:xlink="http://www.w3.org/1999/xlink" viewBox="0 0 100 194.2"><defs><style>.cls-1{fill:none;}.cls-2{clip-path:url(#clippath);}.cls-3{fill:#f2eee2;}</style><clipPath id="clippath"><rect class="cls-1" width="100" height="194.2"/></clipPath></defs><g id="menu"><g id="header"><g class="cls-2"><g><path class="cls-3" d="M95.67,31.09c.23,1.13-.59,2.27-1.59,2.5-12.7,2.59-20.19-.68-22.91-4.67-1.59-2.36-1.72-5.17-.23-7.44,.54-1.04,1.81-1.27,2.81-.68,.91,.54,1.27,1.91,.59,2.81-.68,1.13-.36,2.27,.23,2.95,2.04,2.95,8.62,5.08,18.6,2.95,1.13-.23,2.27,.54,2.5,1.59ZM74.21,3.78c-.09-.14-.23-.36-.23-.45,0-.36,.23-.59,.45-.82,.45-.23,1.04-.09,1.27,.23,0,0,.91,1.36,2.5,1.81,1.59,.45,3.86,.68,5.9,.91,3.86,.23,6.22,.59,7.26,1.72,.32,.45,.45,.91,.45,1.45-.14,1.36-2.72,2.95-7.71,4.54-.45,.14-1.04-.09-1.13-.54v-.36c0-.32,.23-.68,.54-.77,3.09-1.04,6.03-2.4,6.49-3.09h-.14c-.54-.77-3.49-1-5.9-1.13-2.27-.23-4.54-.45-6.35-1-2.27-.68-3.4-2.4-3.4-2.5Zm22.82,2.81c.32,.36,.32,.91,0,1.36-.36,.36-.91,.36-1.27,0,0-.09-1.36-1.36-3.27-2.95-.36-.32-.45-.91-.14-1.36,.36-.32,.91-.32,1.27-.09,2.04,1.68,3.4,3.04,3.4,3.04Zm2.72-2.04c-.45,.36-1.04,.36-1.36,0,0,0-1.27-1.23-3.31-2.95-.32-.23-.32-.77-.09-1.23,.32-.36,.91-.45,1.36-.14,1.91,1.72,3.27,3.09,3.4,3.09,.32,.32,.32,.91,0,1.23Z"/><path class="cls-3" d="M74.43,77.84l-3.4,5.54c.45,1,.14,2.13-.91,2.59-1,.59-2.27,.14-2.72-.77-1.82-3.54-1.36-12.8,.91-21.42,.45-1.59-.32-3.54-.68-4.22-.54-1-.23-2.13,.82-2.72,1-.54,2.27-.23,2.81,.82,.14,.32,1.95,3.63,1.04,7.12-1.95,7.03-2.18,12.84-1.82,15.97l2.36-3.81c.36-.45,.82-.59,1.27-.36,.45,.36,.54,.82,.32,1.27Zm24.18,6.9c0,.32-.14,.54-.36,.68-.32,.32-.91,.32-1.23,0-1.59-1.82-3.77-3.18-6.13-4.08,0,2.27-.91,3.49-1.72,4.17-1,.82-2.27,1.27-3.86,1.27-3.18,0-6.67-1.82-6.67-4.31,0-1.72,1-3.04,2.72-3.72,1.91-.68,4.76-.68,7.71,.09,0-1.23-.14-2.81-.23-4.54-.14-2.95-.23-6.13-.36-9.07-2.81,.59-5.99,.68-8.39-.45-.45-.09-.68-.68-.45-1.13,.14-.45,.68-.68,1.13-.45,2.18,.91,5.13,.68,7.71,.23v-1.68c0-2.18,0-3.99,.23-4.9,.14-.54,.59-.91,1.13-.77,.36,.09,.68,.54,.68,.91v.23c-.23,.77-.23,2.36-.23,4.4v1.36c2.72-.68,4.9-1.59,4.99-1.59,.45-.23,.91,0,1.13,.45,.23,.45,0,1.04-.45,1.13-.23,.14-2.59,1.13-5.67,1.95,.14,3.04,.23,6.44,.36,9.3,.09,2.04,.23,3.86,.23,5.22,2.81,1,5.44,2.59,7.49,4.72,.09,.23,.23,.45,.23,.59Zm-9.44-3.54c0-.09-.09-.32-.09-.45-2.63-.77-5.35-.86-7.03-.32-1.59,.68-1.59,1.68-1.59,2.04,0,1,2.36,2.5,4.85,2.5,.82,0,1.82-.14,2.72-.82,.68-.68,1.13-1.68,1.13-2.95Z"/><path class="cls-3" d="M82.51,114.07c-12.61,15.74-14.2,24-14.2,24.14-.23,1.13-1.22,1.82-2.36,1.68-1.04-.23-1.82-1.23-1.59-2.36,0-.36,1.59-9.3,14.97-26.09,.68-.77-.14-2.13-.14-2.13-.54-.91-.32-2.18,.68-2.86,.91-.54,2.18-.23,2.72,.68,.91,1.5,1.82,4.45-.09,6.94Zm16.43,16.56c-1.68,4.85-4.76,8.71-8.03,9.94-1.59,.59-3.18,.59-4.45-.09-2.95-1.59-1.91-4.76-1-7.8,.68-2.72,1.45-5.44,.23-7.49-.36-.68-1.04-1.13-1.95-1.27-2.04-.32-4.99,.59-7.26,2.4-.32,.32-.91,.32-1.23-.14-.36-.32-.23-.91,.09-1.23,2.72-2.18,6.13-3.31,8.76-2.86,1.45,.23,2.5,1.04,3.18,2.04,1.68,2.86,.68,6.03-.14,8.98-1,3.27-1.23,4.95,.23,5.76,.91,.54,2.04,.32,2.86,0,2.13-.91,5.22-3.63,7.03-8.94,.23-.45,.68-.68,1.13-.59,.54,.23,.77,.68,.54,1.27Z"/><path class="cls-3" d="M91.67,192.6c.14,.45-.23,.91-.77,1-12.39,1.59-20.19-.23-21.55-5.08-1.04-3.63,2.36-8.17,8.26-11.12-.68-2.59-1.45-6.44-1.13-10.98,.14-1.13-.91-2.72-1.45-3.4-.82-.82-.68-2.04,.23-2.86,.77-.68,2.13-.68,2.81,.23,.36,.36,2.72,3.18,2.5,6.26-.54,7.03,1.95,12.34,1.95,12.34,.54,1.04,.09,2.27-.91,2.72-1.04,.59-2.27,.14-2.72-.91,0-.09-.36-.68-.68-1.59-4.9,2.5-7.85,6.13-7.03,8.85,.77,2.95,6.35,5.44,19.51,3.72,.45-.09,.91,.23,1,.82Zm2.18-20.87c-.45,1.36-1.81,2.4-4.22,2.95-1.59,.36-3.86,1.04-5.54,1.72-.45,.09-1.04-.14-1.27-.59-.09-.45,.14-1,.59-1.13,1.81-.68,4.17-1.45,5.9-1.82,1.59-.32,2.59-1,2.72-1.68,.32-.82-.45-1.72-.68-2.04-.36-.36-.36-.91,0-1.27,.32-.32,.91-.32,1.22,0,.14,.14,1.82,1.95,1.27,3.86Z"/><path class="cls-3" d="M32.35,22.92c0,4.08-3.95,8.58-9.53,8.58-2.36,0-4.4-1.13-5.44-3.04-.91-1.81-.68-3.95,.68-5.76,.36-.45,.91-.59,1.36-.23,.36,.23,.45,.77,.14,1.23-.91,1.36-1.13,2.72-.45,3.95,.54,1.27,2.04,2.04,3.72,2.04,4.45,0,7.71-3.49,7.71-6.76,0-1.27-.54-2.4-1.59-3.18-1.36-1.04-3.4-1.59-5.9-1.59-2.27,0-6.13,1.36-9.85,2.81,0,5.35,.09,9.17,.09,9.17,0,1.13-.91,2.04-2.04,2.18-1.13,0-2.04-.91-2.04-2.04v-.23l-4.4-2.81c-.36-.23-.59-.82-.36-1.27,.36-.45,.91-.54,1.27-.23l3.4,2.13v-5.17c-2.63,1-5.13,2.04-6.81,2.5-.45,.23-1.04-.14-1.13-.59-.14-.45,.09-1,.68-1.13,1.68-.45,4.17-1.45,6.81-2.59,.23-.14,.32-.14,.45-.23,0-2.63,0-5.44,.09-8.62-2.04,.23-3.86-.14-5.22-1.27-.32-.32-.32-.91,0-1.36,.36-.32,.91-.32,1.27,0,.91,.82,2.36,1.04,3.95,.82v-2.72c.14-1.36-.77-3.31-1-3.86-.59-1.04-.23-2.27,.77-2.86,1.04-.45,2.27-.09,2.86,.91,.09,.36,1.59,3.18,1.45,5.9v1.72c1.81-.59,3.4-1.27,4.31-1.72,.45-.23,1.04-.09,1.27,.36,.23,.45,0,1-.45,1.23-.45,.23-2.63,1.27-5.13,2.04-.09,2.72-.09,5.44-.09,7.85,3.72-1.5,7.49-2.72,9.85-2.72,2.95,0,5.35,.68,7.03,1.91,1.5,1.13,2.27,2.86,2.27,4.67Zm1.59-10.66c-.32,.32-.91,.32-1.23,0,0-.14-2.4-2.4-8.76,.45-.45,.09-1,0-1.23-.45-.14-.45,0-1.04,.45-1.27,7.8-3.4,10.75-.09,10.89,0,.32,.36,.23,.91-.14,1.27Z"/><path class="cls-3" d="M20.91,71.8c-.14,4.76-2.5,12.11-4.67,12.89-3.27,1.13-5.99-2.72-6.13-2.95-.23-.32-.09-.91,.36-1.23,.32-.23,.91-.09,1.23,.23,0,.09,2.04,2.95,3.99,2.27,.91-.59,3.4-6.9,3.4-11.66v-.59c-.14-1-.36-2.72-1.27-3.18-1.13-.45-2.5-.45-3.95-.23-4.08,12.39-9.98,19.06-10.34,19.37-.77,.82-2.04,.91-2.81,.14-.91-.68-.91-2.04-.23-2.86,.09-.09,4.85-5.63,8.71-15.61-2.59,.54-4.76,1-6.22,.23-.45-.23-.68-.82-.45-1.27,.23-.45,.77-.54,1.22-.32,1.04,.54,3.4,0,5.67-.59,.23-.09,.36-.09,.45-.09,.82-2.04,1.36-4.31,1.95-6.72,.32-1.59-.36-2.59-.45-2.59-.59-.91-.45-2.27,.45-2.86,.91-.68,2.13-.54,2.81,.36,.23,.23,1.95,2.59,1.13,5.99-.32,1.72-.77,3.4-1.23,4.9,1.36-.14,2.72,0,3.95,.54,1.13,.45,2.5,1.81,2.4,5.81Zm14.38,1c.14,2.04-3.95,2.95-7.26,3.31-.45,0-.91-.36-1-.82v-.09c0-.45,.32-.82,.77-.91,2.63-.23,5.22-1.04,5.67-1.5-.09-3.4-4.54-6.35-8.48-7.12-.45-.14-.82-.59-.82-.91l.14-.23c0-.45,.54-.82,1-.68,4.9,.91,9.89,4.54,9.98,8.94Z"/><path class="cls-3" d="M34.3,115.13c0,.45-.45,.91-1.04,.91,0,0-4.08-.14-9.76,.09,0,.82-.09,1.72-.09,2.63,0,1.13-.91,2.04-2.04,1.91-1.13,0-2.04-.91-2.04-2.04,0-.77,.09-1.59,.09-2.36-4.17,.09-8.71,.45-12.93,1-2.95,.36-4.54-.91-4.63-.91-.36-.32-.45-.91-.14-1.23,.23-.45,.82-.59,1.27-.23,0,0,1.13,.77,3.27,.54,4.31-.54,8.98-.91,13.29-1,.09-1.04,.09-1.95,.23-2.86,.23-1.59-.45-2.81-.45-2.81-.45-1.04,0-2.27,1-2.72,1.04-.45,2.18-.14,2.72,.91,.14,.23,1.04,2.36,.82,4.99-.14,.77-.14,1.59-.23,2.36,5.54-.23,9.62-.09,9.76-.09,.45,0,.91,.45,.91,.91Zm-12.02,7.35c.91,1.04,1.45,2.4,1.45,4.54v.23c-.09,2.95-.32,10.53-9.17,14.16-.45,.23-1.04,0-1.27-.45v-.32c0-.36,.23-.68,.59-.91,7.58-3.09,7.94-9.3,8.03-12.25-.68,2.86-2.04,3.99-2.95,4.45-1.36,.54-2.95,.45-4.17-.59-1.5-1.13-2.04-2.95-1.72-4.99,.82-3.86,3.77-5.67,6.35-5.31,.45,0,.91,.23,1.36,.45,.14-.14,.36-.23,.59-.23,.45,0,.91,.32,.91,.91v.32Zm-1.81,1.72v-.91c-.45-.23-.82-.45-1.27-.45-1.68-.23-3.72,1-4.31,3.86-.32,1.36,.14,2.59,1.04,3.27,.68,.59,1.45,.59,2.27,.23,.68-.32,2.27-1.59,2.27-5.99Zm8.85-14.66c-.45-.32-.45-.91-.14-1.23,.36-.45,.91-.45,1.27-.14,2.04,1.59,3.27,2.95,3.4,2.95,.32,.45,.32,1.04,0,1.36-.36,.36-.91,.36-1.27,0,0,0-1.36-1.36-3.27-2.95Zm7.12-.45c-.32,.45-.91,.45-1.23,0l-3.31-2.81c-.32-.36-.45-.91-.09-1.36,.32-.36,.91-.45,1.36-.14l3.27,3.09c.45,.32,.45,.91,0,1.23Z"/></g></g></g></g></svg>