<?xml version="1.0" encoding="UTF-8"?><svg id="_レイヤー_2" xmlns="http://www.w3.org/2000/svg" viewBox="0 0 43 35"><defs><style>.cls-1{fill:#fff;}</style></defs><g id="menu"><g id="footer"><g id="Logo"><path id="white_background" class="cls-1" d="M38.6,8.71c.03,.38,.03,.76,.03,1.14,0,11.68-8.87,25.14-25.1,25.14h0c-4.79,0-9.49-1.38-13.52-3.97,.7,.08,1.4,.13,2.1,.13,3.97,0,7.83-1.33,10.96-3.79-3.78-.07-7.09-2.54-8.24-6.14,1.32,.26,2.68,.2,3.98-.15-4.12-.83-7.08-4.46-7.08-8.66v-.11c1.23,.68,2.6,1.06,4,1.11C1.85,10.82,.65,5.65,2.99,1.61,7.47,7.13,14.08,10.49,21.18,10.84c-.71-3.07,.26-6.29,2.55-8.44,3.55-3.35,9.14-3.17,12.48,.38,1.98-.39,3.87-1.12,5.6-2.15-.66,2.05-2.04,3.78-3.88,4.89,1.75-.21,3.46-.68,5.07-1.39-1.18,1.78-2.68,3.33-4.4,4.58Z"/></g></g></g></svg>